<svg xmlns="http://www.w3.org/2000/svg" width="1024" height="1024" viewBox="0 0 1024 1024">
  <metadata><?xpacket begin="﻿" id="W5M0MpCehiHzreSzNTczkc9d"?>
<x:xmpmeta xmlns:x="adobe:ns:meta/" x:xmptk="Adobe XMP Core 5.6-c140 79.160451, 2017/05/06-01:08:21        ">
   <rdf:RDF xmlns:rdf="http://www.w3.org/1999/02/22-rdf-syntax-ns#">
      <rdf:Description rdf:about=""/>
   </rdf:RDF>
</x:xmpmeta>
<?xpacket end="w"?></metadata>
<defs>
    <style>
      .cls-1, .cls-5 {
        fill: #1a2f52;
      }

      .cls-2 {
        fill: #e1e1e1;
      }

      .cls-2, .cls-3, .cls-5 {
        fill-rule: evenodd;
      }

      .cls-3, .cls-4 {
        fill: #fff;
      }

      .cls-6 {
        fill: #cdcdcd;
      }
    </style>
  </defs>
  <rect id="矩形_1" data-name="矩形 1" class="cls-1" width="1024" height="1024"/>
  <path id="矩形_5_副本_3" data-name="矩形 5 副本 3" class="cls-2" d="M433.025,649H144.048V768.987H433.025V649Z"/>
  <path id="矩形_5" data-name="矩形 5" class="cls-2" d="M78.527,397.551H398.912V768.643H78.527V397.551Z"/>
  <path id="矩形_3" data-name="矩形 3" class="cls-3" d="M-42.666,739.839L25.885,416.281,161.8,445.1,93.249,768.655Z"/>
  <rect id="矩形_4" data-name="矩形 4" class="cls-4" x="-168" y="468.438" width="261.5" height="301.25"/>
  <path id="矩形_6" data-name="矩形 6" class="cls-3" d="M503.661,730.293H610.375V768.97H503.661V730.293Z"/>
  <path id="矩形_5_副本" data-name="矩形 5 副本" class="cls-3" d="M399.777,338.742l65.024-15.6L568.142,753.358l-65.024,15.6Z"/>
  <path id="矩形_5_副本_2" data-name="矩形 5 副本 2" class="cls-3" d="M666.075,269.878l61.2,14.664L610.83,768.629l-61.2-14.664Z"/>
  <path id="矩形_5_副本_4" data-name="矩形 5 副本 4" class="cls-5" d="M323.923,339.787l65.024-15.6L492.287,754.4l-65.024,15.6Z"/>
  <rect id="矩形_7" data-name="矩形 7" class="cls-6" x="-10" y="766" width="1110" height="23"/>
  <path id="圆角矩形_2" data-name="圆角矩形 2" class="cls-3" d="M-15.052,404l794.777-184.89a53,53,0,1,1,24.018,103.243L8.965,507.241a53,53,0,0,1-63.63-39.613A53,53,0,0,1-15.052,404Z"/>
</svg>
